<?xml version="1.0" encoding="utf-8"?>
<!-- Generator: Adobe Illustrator 23.0.4, SVG Export Plug-In . SVG Version: 6.00 Build 0)  -->
<svg version="1.1" id="Camada_1" xmlns="http://www.w3.org/2000/svg" xmlns:xlink="http://www.w3.org/1999/xlink" x="0px" y="0px"
	 viewBox="0 0 566.9 255.1" style="enable-background:new 0 0 566.9 255.1;" xml:space="preserve">
<style type="text/css">
	.st0{fill-rule:evenodd;clip-rule:evenodd;fill:#FF0035;}
	.st1{fill-rule:evenodd;clip-rule:evenodd;fill:#7000F2;}
	.st2{fill:#8B939C;}
	.st3{font-family:'MyriadPro-Regular';}
	.st4{font-size:210px;}
	.st5{fill:#FF0035;}
	.st6{fill:#7000F2;}
</style>
<g id="logo">
	<path id="dot" class="st0" d="M560.4,175.4c0,3.9-0.7,7.5-2.2,10.9c-1.5,3.4-3.5,6.3-6.1,8.8c-2.6,2.5-5.6,4.5-9,6
		c-3.4,1.5-7.1,2.3-11,2.3c-3.9,0-7.5-0.7-11-2.3c-3.5-1.5-6.4-3.5-8.9-6c-2.5-2.5-4.5-5.5-6-8.8c-1.5-3.4-2.2-7-2.2-10.9
		c0-3.8,0.7-7.4,2.2-10.8c1.5-3.4,3.5-6.4,6-8.9c2.5-2.5,5.5-4.5,8.9-6c3.4-1.5,7.1-2.2,11-2.2c3.9,0,7.5,0.7,11,2.2
		c3.5,1.5,6.4,3.5,9,6c2.6,2.5,4.6,5.5,6.1,8.9C559.7,168,560.4,171.6,560.4,175.4L560.4,175.4z"/>
	<g id="arrow">
		<path id="arrow_down" class="st1" d="M60.2,153.3L60.2,153.3l0.3,0.3v0L60.2,153.3z M60.6,153.7L60.6,153.7l0.8,0.8l3.5,3.3
			l48.5,45.6l27.5-30.7l-50.1-45.4l-2.1-1.9l-1.1-1l-2.5-2.2l-7.4,9.6l-11.5,14.9L60.6,153.7l0.8,0.8l3.5,3.3
			c-0.1-0.9-0.1-1.7-0.1-2.6c0-3,0.5-5.9,1.4-8.6c0.2-0.7,0.5-1.5,0.8-2.2c1.5-3.4,3.5-6.4,6-8.9c1.4-1.4,2.9-2.7,4.7-3.8
			c1.3-0.8,2.7-1.6,4.2-2.2c2.8-1.2,5.8-1.9,8.9-2.1l-2.1-1.9l-1.1-1l-2.5-2.2l-7.4,9.6l-11.5,14.9L60.6,153.7L60.6,153.7z"/>
		<path id="arrow_up" class="st0" d="M84.5,121.5l56.7-56.9l-29.7-28.1l-83.3,86.7l30.4,28.6c-0.1-0.7-0.1-1.4-0.1-2.2
			c0-3.8,0.7-7.4,2.2-10.8c1.5-3.4,3.5-6.4,6-8.9c2.5-2.5,5.5-4.5,8.9-6c2.9-1.2,5.9-1.9,9.1-2.1L84.5,121.5z"/>
	</g>
	<text transform="matrix(1.0411 0 0 1 129.0024 203.3219)" class="st2 st3 st4">D</text>
	<text transform="matrix(1.0411 0 0 1 267.4646 202.2275)" class="st5 st3 st4">L</text>
	<text transform="matrix(1.0411 0 0 1 355.0029 202.2274)" class="st6 st3 st4">C</text>
</g>
</svg>
