<?xml version="1.0" encoding="utf-8"?>
<!-- Generator: Adobe Illustrator 23.0.4, SVG Export Plug-In . SVG Version: 6.00 Build 0)  -->
<svg version="1.1" id="Camada_1" xmlns="http://www.w3.org/2000/svg" xmlns:xlink="http://www.w3.org/1999/xlink" x="0px" y="0px"
	 viewBox="0 0 595.3 666.1" style="enable-background:new 0 0 595.3 666.1;" xml:space="preserve">
<style type="text/css">
	.st0{fill-rule:evenodd;clip-rule:evenodd;fill:#FF0035;}
	.st1{fill-rule:evenodd;clip-rule:evenodd;fill:#7000F2;}
	.st2{fill:#8B939C;}
	.st3{font-family:'MyriadPro-Regular';}
	.st4{font-size:270px;}
	.st5{fill:#FF0035;}
	.st6{fill:#7000F2;}
</style>
<path id="dot" class="st0" d="M531.7,616.8c-4.1,4-8.8,7-13.9,8.9c-5.2,1.8-10.4,2.7-15.7,2.6c-5.3-0.1-10.6-1.3-15.7-3.5
	c-5.1-2.1-9.7-5.2-13.7-9.4c-4-4.1-7-8.8-8.9-14c-2-5.2-3-10.5-2.8-15.7c0.1-5.3,1.2-10.5,3.2-15.5c2.1-5.1,5.2-9.6,9.4-13.6
	c4.1-4,8.7-6.9,13.9-8.9c5.2-1.9,10.5-2.8,15.8-2.8c5.2,0,10.5,1.2,15.6,3.4c5.1,2.1,9.7,5.3,13.7,9.4c4,4.1,7,8.8,9,14
	c2,5.2,3,10.5,2.9,15.8c0,5.3-1.2,10.6-3.3,15.7C538.9,608.4,535.8,612.9,531.7,616.8L531.7,616.8z"/>
<g id="arrow">
	<path id="arrow_down" class="st1" d="M6.7,77.8L6.7,77.8l0,0.7l0,0L6.7,77.8z M6.7,78.5L6.7,78.5l0,1.7l0.1,7.2l1.3,99l61.2-2.3
		L66.2,83.6l-0.1-4.3L66,77l-0.2-5L48,74l-27.8,3L6.7,78.5l0,1.7l0.1,7.2c0.8-1,1.7-1.9,2.7-2.8c3.2-3.1,6.8-5.6,10.7-7.5
		c1-0.5,2.1-1,3.2-1.4c5.2-1.9,10.5-2.8,15.8-2.8c3,0,5.9,0.4,8.8,1.1c2.3,0.6,4.5,1.3,6.8,2.3c4.2,1.7,8,4.2,11.5,7.3l-0.1-4.3
		L66,77l-0.2-5L48,74l-27.8,3L6.7,78.5L6.7,78.5z"/>
	<path id="arrow_up" class="st0" d="M65.8,71l119.4,1.8L184.6,12L5.8,12.4l0.8,62.1c0.7-0.8,1.5-1.6,2.3-2.3c4.1-4,8.7-6.9,13.9-8.9
		c5.2-1.9,10.5-2.8,15.8-2.8c5.2,0,10.5,1.2,15.6,3.4c4.3,1.8,8.2,4.3,11.7,7.5L65.8,71L65.8,71z"/>
</g>
<text transform="matrix(0.6892 0.7246 -0.7246 0.6892 95.563 186.3547)" class="st2 st3 st4">D</text>
<text transform="matrix(0.6892 0.7246 -0.7246 0.6892 210.2788 314.3549)" class="st5 st3 st4">L</text>
<text transform="matrix(0.6892 0.7246 -0.7246 0.6892 322.9438 432.3549)" class="st6 st3 st4">C</text>
</svg>
